<mxfile host="app.diagrams.net" modified="2021-02-26T01:56:17.149Z" agent="5.0 (Windows NT 10.0; Win64; x64) AppleWebKit/537.36 (KHTML, like Gecko) Chrome/88.0.4324.182 Safari/537.36 Edg/88.0.705.74" etag="bITV8_TMPJd69llXWKZF" version="14.4.3" type="github">
  <diagram name="Page-1" id="e7e014a7-5840-1c2e-5031-d8a46d1fe8dd">
    <mxGraphModel dx="1422" dy="866" grid="1" gridSize="10" guides="1" tooltips="1" connect="1" arrows="1" fold="1" page="1" pageScale="1" pageWidth="1169" pageHeight="826" background="#ffffff" math="0" shadow="0">
      <root>
        <mxCell id="0" />
        <mxCell id="1" parent="0" />
        <mxCell id="9ARMjuW_XUP-sxyPgSNL-70" style="edgeStyle=orthogonalEdgeStyle;rounded=0;orthogonalLoop=1;jettySize=auto;html=1;exitX=1;exitY=0.5;exitDx=0;exitDy=0;entryX=0;entryY=0.5;entryDx=0;entryDy=0;" parent="1" source="9ARMjuW_XUP-sxyPgSNL-42" target="9ARMjuW_XUP-sxyPgSNL-47" edge="1">
          <mxGeometry relative="1" as="geometry" />
        </mxCell>
        <mxCell id="9ARMjuW_XUP-sxyPgSNL-42" value="PENDAFTAR" style="rounded=0;whiteSpace=wrap;html=1;" parent="1" vertex="1">
          <mxGeometry x="220" y="50" width="120" height="60" as="geometry" />
        </mxCell>
        <mxCell id="9ARMjuW_XUP-sxyPgSNL-77" style="edgeStyle=orthogonalEdgeStyle;rounded=0;orthogonalLoop=1;jettySize=auto;html=1;exitX=1;exitY=0.5;exitDx=0;exitDy=0;entryX=0;entryY=0;entryDx=0;entryDy=0;" parent="1" source="9ARMjuW_XUP-sxyPgSNL-44" target="9ARMjuW_XUP-sxyPgSNL-53" edge="1">
          <mxGeometry relative="1" as="geometry">
            <Array as="points">
              <mxPoint x="628" y="540" />
            </Array>
          </mxGeometry>
        </mxCell>
        <mxCell id="9ARMjuW_XUP-sxyPgSNL-44" value="PEGAWAI" style="rounded=0;whiteSpace=wrap;html=1;" parent="1" vertex="1">
          <mxGeometry x="190" y="510" width="120" height="60" as="geometry" />
        </mxCell>
        <mxCell id="9ARMjuW_XUP-sxyPgSNL-71" style="edgeStyle=orthogonalEdgeStyle;rounded=0;orthogonalLoop=1;jettySize=auto;html=1;exitX=0.5;exitY=1;exitDx=0;exitDy=0;" parent="1" source="9ARMjuW_XUP-sxyPgSNL-47" target="9ARMjuW_XUP-sxyPgSNL-48" edge="1">
          <mxGeometry relative="1" as="geometry">
            <mxPoint x="632.98" y="220" as="targetPoint" />
          </mxGeometry>
        </mxCell>
        <mxCell id="9ARMjuW_XUP-sxyPgSNL-47" value="LOGIN" style="rhombus;whiteSpace=wrap;html=1;" parent="1" vertex="1">
          <mxGeometry x="575" y="10" width="115" height="100" as="geometry" />
        </mxCell>
        <mxCell id="9ARMjuW_XUP-sxyPgSNL-73" style="edgeStyle=orthogonalEdgeStyle;rounded=0;orthogonalLoop=1;jettySize=auto;html=1;exitX=0.5;exitY=1;exitDx=0;exitDy=0;entryX=0.25;entryY=0;entryDx=0;entryDy=0;" parent="1" source="9ARMjuW_XUP-sxyPgSNL-48" target="9ARMjuW_XUP-sxyPgSNL-93" edge="1">
          <mxGeometry relative="1" as="geometry">
            <mxPoint x="835" y="320" as="targetPoint" />
            <Array as="points">
              <mxPoint x="750" y="285" />
              <mxPoint x="750" y="170" />
              <mxPoint x="891" y="170" />
              <mxPoint x="891" y="190" />
              <mxPoint x="1100" y="190" />
            </Array>
          </mxGeometry>
        </mxCell>
        <mxCell id="9ARMjuW_XUP-sxyPgSNL-48" value="MENCARI PELATIHAN" style="rhombus;whiteSpace=wrap;html=1;" parent="1" vertex="1">
          <mxGeometry x="602.5" y="175" width="110" height="110" as="geometry" />
        </mxCell>
        <mxCell id="9ARMjuW_XUP-sxyPgSNL-75" style="edgeStyle=orthogonalEdgeStyle;rounded=0;orthogonalLoop=1;jettySize=auto;html=1;exitX=0.5;exitY=1;exitDx=0;exitDy=0;entryX=0.5;entryY=0;entryDx=0;entryDy=0;" parent="1" source="9ARMjuW_XUP-sxyPgSNL-51" target="9ARMjuW_XUP-sxyPgSNL-52" edge="1">
          <mxGeometry relative="1" as="geometry" />
        </mxCell>
        <mxCell id="9ARMjuW_XUP-sxyPgSNL-51" value="MENGELOLAH PELATIHAN" style="rhombus;whiteSpace=wrap;html=1;" parent="1" vertex="1">
          <mxGeometry x="690" y="335" width="120" height="110" as="geometry" />
        </mxCell>
        <mxCell id="9ARMjuW_XUP-sxyPgSNL-76" style="edgeStyle=orthogonalEdgeStyle;rounded=0;orthogonalLoop=1;jettySize=auto;html=1;exitX=0.5;exitY=1;exitDx=0;exitDy=0;" parent="1" source="9ARMjuW_XUP-sxyPgSNL-52" target="9ARMjuW_XUP-sxyPgSNL-53" edge="1">
          <mxGeometry relative="1" as="geometry" />
        </mxCell>
        <mxCell id="9ARMjuW_XUP-sxyPgSNL-52" value="PENGELOLAH PENJADWAL" style="rhombus;whiteSpace=wrap;html=1;" parent="1" vertex="1">
          <mxGeometry x="775" y="480" width="120" height="100" as="geometry" />
        </mxCell>
        <mxCell id="9ARMjuW_XUP-sxyPgSNL-53" value="PENGELOLAH PEGAWAI" style="rhombus;whiteSpace=wrap;html=1;" parent="1" vertex="1">
          <mxGeometry x="600" y="590" width="112.5" height="110" as="geometry" />
        </mxCell>
        <mxCell id="9ARMjuW_XUP-sxyPgSNL-64" style="edgeStyle=orthogonalEdgeStyle;rounded=0;orthogonalLoop=1;jettySize=auto;html=1;exitX=1;exitY=0;exitDx=0;exitDy=0;entryX=0;entryY=0.5;entryDx=0;entryDy=0;" parent="1" source="9ARMjuW_XUP-sxyPgSNL-54" target="9ARMjuW_XUP-sxyPgSNL-42" edge="1">
          <mxGeometry relative="1" as="geometry">
            <Array as="points">
              <mxPoint x="165" y="80" />
            </Array>
          </mxGeometry>
        </mxCell>
        <mxCell id="9ARMjuW_XUP-sxyPgSNL-54" value="ID_PENDAFTAR" style="ellipse;whiteSpace=wrap;html=1;" parent="1" vertex="1">
          <mxGeometry x="30" y="120" width="100" height="60" as="geometry" />
        </mxCell>
        <mxCell id="9ARMjuW_XUP-sxyPgSNL-67" style="edgeStyle=orthogonalEdgeStyle;rounded=0;orthogonalLoop=1;jettySize=auto;html=1;exitX=0.5;exitY=0;exitDx=0;exitDy=0;entryX=0.25;entryY=1;entryDx=0;entryDy=0;" parent="1" source="9ARMjuW_XUP-sxyPgSNL-57" target="9ARMjuW_XUP-sxyPgSNL-42" edge="1">
          <mxGeometry relative="1" as="geometry" />
        </mxCell>
        <mxCell id="9ARMjuW_XUP-sxyPgSNL-57" value="PELATIHAN" style="ellipse;whiteSpace=wrap;html=1;" parent="1" vertex="1">
          <mxGeometry x="330" y="170" width="100" height="60" as="geometry" />
        </mxCell>
        <mxCell id="9ARMjuW_XUP-sxyPgSNL-65" style="edgeStyle=orthogonalEdgeStyle;rounded=0;orthogonalLoop=1;jettySize=auto;html=1;exitX=1;exitY=0;exitDx=0;exitDy=0;entryX=0;entryY=0.75;entryDx=0;entryDy=0;" parent="1" source="9ARMjuW_XUP-sxyPgSNL-58" target="9ARMjuW_XUP-sxyPgSNL-42" edge="1">
          <mxGeometry relative="1" as="geometry" />
        </mxCell>
        <mxCell id="9ARMjuW_XUP-sxyPgSNL-58" value="ALAMAT" style="ellipse;whiteSpace=wrap;html=1;" parent="1" vertex="1">
          <mxGeometry x="100" y="170" width="100" height="60" as="geometry" />
        </mxCell>
        <mxCell id="9ARMjuW_XUP-sxyPgSNL-66" style="edgeStyle=orthogonalEdgeStyle;rounded=0;orthogonalLoop=1;jettySize=auto;html=1;exitX=0.5;exitY=0;exitDx=0;exitDy=0;entryX=-0.025;entryY=0.9;entryDx=0;entryDy=0;entryPerimeter=0;" parent="1" source="9ARMjuW_XUP-sxyPgSNL-59" target="9ARMjuW_XUP-sxyPgSNL-42" edge="1">
          <mxGeometry relative="1" as="geometry" />
        </mxCell>
        <mxCell id="9ARMjuW_XUP-sxyPgSNL-59" value="TTL" style="ellipse;whiteSpace=wrap;html=1;" parent="1" vertex="1">
          <mxGeometry x="230" y="180" width="100" height="60" as="geometry" />
        </mxCell>
        <mxCell id="9ARMjuW_XUP-sxyPgSNL-68" style="edgeStyle=orthogonalEdgeStyle;rounded=0;orthogonalLoop=1;jettySize=auto;html=1;exitX=0.5;exitY=0;exitDx=0;exitDy=0;entryX=0.5;entryY=1;entryDx=0;entryDy=0;" parent="1" source="9ARMjuW_XUP-sxyPgSNL-60" target="9ARMjuW_XUP-sxyPgSNL-42" edge="1">
          <mxGeometry relative="1" as="geometry" />
        </mxCell>
        <mxCell id="9ARMjuW_XUP-sxyPgSNL-60" value="NAMA" style="ellipse;whiteSpace=wrap;html=1;" parent="1" vertex="1">
          <mxGeometry x="420" y="150" width="100" height="60" as="geometry" />
        </mxCell>
        <mxCell id="9ARMjuW_XUP-sxyPgSNL-69" style="edgeStyle=orthogonalEdgeStyle;rounded=0;orthogonalLoop=1;jettySize=auto;html=1;exitX=0;exitY=0.5;exitDx=0;exitDy=0;entryX=1.025;entryY=0.633;entryDx=0;entryDy=0;entryPerimeter=0;" parent="1" source="9ARMjuW_XUP-sxyPgSNL-61" target="9ARMjuW_XUP-sxyPgSNL-42" edge="1">
          <mxGeometry relative="1" as="geometry" />
        </mxCell>
        <mxCell id="9ARMjuW_XUP-sxyPgSNL-61" value="JENIS KELAMIN" style="ellipse;whiteSpace=wrap;html=1;" parent="1" vertex="1">
          <mxGeometry x="470" y="90" width="100" height="60" as="geometry" />
        </mxCell>
        <mxCell id="9ARMjuW_XUP-sxyPgSNL-87" style="edgeStyle=orthogonalEdgeStyle;rounded=0;orthogonalLoop=1;jettySize=auto;html=1;exitX=1;exitY=0;exitDx=0;exitDy=0;entryX=0;entryY=0.5;entryDx=0;entryDy=0;" parent="1" source="9ARMjuW_XUP-sxyPgSNL-79" target="9ARMjuW_XUP-sxyPgSNL-44" edge="1">
          <mxGeometry relative="1" as="geometry" />
        </mxCell>
        <mxCell id="9ARMjuW_XUP-sxyPgSNL-79" value="ID_PEGAWAI" style="ellipse;whiteSpace=wrap;html=1;" parent="1" vertex="1">
          <mxGeometry x="10" y="630" width="100" height="60" as="geometry" />
        </mxCell>
        <mxCell id="9ARMjuW_XUP-sxyPgSNL-88" style="edgeStyle=orthogonalEdgeStyle;rounded=0;orthogonalLoop=1;jettySize=auto;html=1;exitX=1;exitY=0;exitDx=0;exitDy=0;entryX=0;entryY=0.75;entryDx=0;entryDy=0;" parent="1" source="9ARMjuW_XUP-sxyPgSNL-82" target="9ARMjuW_XUP-sxyPgSNL-44" edge="1">
          <mxGeometry relative="1" as="geometry" />
        </mxCell>
        <mxCell id="9ARMjuW_XUP-sxyPgSNL-82" value="PENDAFTAR" style="ellipse;whiteSpace=wrap;html=1;" parent="1" vertex="1">
          <mxGeometry x="90" y="660" width="100" height="60" as="geometry" />
        </mxCell>
        <mxCell id="9ARMjuW_XUP-sxyPgSNL-89" style="edgeStyle=orthogonalEdgeStyle;rounded=0;orthogonalLoop=1;jettySize=auto;html=1;exitX=0.5;exitY=0;exitDx=0;exitDy=0;entryX=0.158;entryY=1.033;entryDx=0;entryDy=0;entryPerimeter=0;" parent="1" source="9ARMjuW_XUP-sxyPgSNL-83" target="9ARMjuW_XUP-sxyPgSNL-44" edge="1">
          <mxGeometry relative="1" as="geometry" />
        </mxCell>
        <mxCell id="9ARMjuW_XUP-sxyPgSNL-83" value="TTL" style="ellipse;whiteSpace=wrap;html=1;" parent="1" vertex="1">
          <mxGeometry x="170" y="680" width="100" height="60" as="geometry" />
        </mxCell>
        <mxCell id="9ARMjuW_XUP-sxyPgSNL-90" style="edgeStyle=orthogonalEdgeStyle;rounded=0;orthogonalLoop=1;jettySize=auto;html=1;exitX=0.5;exitY=0;exitDx=0;exitDy=0;entryX=0.5;entryY=1;entryDx=0;entryDy=0;" parent="1" source="9ARMjuW_XUP-sxyPgSNL-84" target="9ARMjuW_XUP-sxyPgSNL-44" edge="1">
          <mxGeometry relative="1" as="geometry" />
        </mxCell>
        <mxCell id="9ARMjuW_XUP-sxyPgSNL-84" value="PELATIHAN" style="ellipse;whiteSpace=wrap;html=1;" parent="1" vertex="1">
          <mxGeometry x="270" y="690" width="100" height="60" as="geometry" />
        </mxCell>
        <mxCell id="9ARMjuW_XUP-sxyPgSNL-91" style="edgeStyle=orthogonalEdgeStyle;rounded=0;orthogonalLoop=1;jettySize=auto;html=1;exitX=0;exitY=0;exitDx=0;exitDy=0;entryX=0.75;entryY=1;entryDx=0;entryDy=0;" parent="1" source="9ARMjuW_XUP-sxyPgSNL-85" target="9ARMjuW_XUP-sxyPgSNL-44" edge="1">
          <mxGeometry relative="1" as="geometry">
            <Array as="points">
              <mxPoint x="365" y="620" />
              <mxPoint x="280" y="620" />
            </Array>
          </mxGeometry>
        </mxCell>
        <mxCell id="9ARMjuW_XUP-sxyPgSNL-85" value="NAMA" style="ellipse;whiteSpace=wrap;html=1;" parent="1" vertex="1">
          <mxGeometry x="350" y="660" width="100" height="60" as="geometry" />
        </mxCell>
        <mxCell id="9ARMjuW_XUP-sxyPgSNL-92" style="edgeStyle=orthogonalEdgeStyle;rounded=0;orthogonalLoop=1;jettySize=auto;html=1;exitX=0.5;exitY=0;exitDx=0;exitDy=0;entryX=1;entryY=1;entryDx=0;entryDy=0;" parent="1" source="9ARMjuW_XUP-sxyPgSNL-86" target="9ARMjuW_XUP-sxyPgSNL-44" edge="1">
          <mxGeometry relative="1" as="geometry" />
        </mxCell>
        <mxCell id="9ARMjuW_XUP-sxyPgSNL-86" value="JENIS_KELAMIN" style="ellipse;whiteSpace=wrap;html=1;" parent="1" vertex="1">
          <mxGeometry x="380" y="610" width="100" height="60" as="geometry" />
        </mxCell>
        <mxCell id="9ARMjuW_XUP-sxyPgSNL-94" style="edgeStyle=orthogonalEdgeStyle;rounded=0;orthogonalLoop=1;jettySize=auto;html=1;exitX=0;exitY=0.5;exitDx=0;exitDy=0;" parent="1" source="9ARMjuW_XUP-sxyPgSNL-93" edge="1">
          <mxGeometry relative="1" as="geometry">
            <mxPoint x="810" y="380" as="targetPoint" />
          </mxGeometry>
        </mxCell>
        <mxCell id="9ARMjuW_XUP-sxyPgSNL-99" style="edgeStyle=orthogonalEdgeStyle;rounded=0;orthogonalLoop=1;jettySize=auto;html=1;exitX=0.5;exitY=1;exitDx=0;exitDy=0;" parent="1" source="9ARMjuW_XUP-sxyPgSNL-93" target="9ARMjuW_XUP-sxyPgSNL-96" edge="1">
          <mxGeometry relative="1" as="geometry" />
        </mxCell>
        <mxCell id="9ARMjuW_XUP-sxyPgSNL-100" style="edgeStyle=orthogonalEdgeStyle;rounded=0;orthogonalLoop=1;jettySize=auto;html=1;exitX=0.75;exitY=1;exitDx=0;exitDy=0;entryX=0.5;entryY=0;entryDx=0;entryDy=0;" parent="1" source="9ARMjuW_XUP-sxyPgSNL-93" target="9ARMjuW_XUP-sxyPgSNL-97" edge="1">
          <mxGeometry relative="1" as="geometry" />
        </mxCell>
        <mxCell id="9ARMjuW_XUP-sxyPgSNL-101" style="edgeStyle=orthogonalEdgeStyle;rounded=0;orthogonalLoop=1;jettySize=auto;html=1;exitX=1;exitY=1;exitDx=0;exitDy=0;entryX=0.5;entryY=0;entryDx=0;entryDy=0;" parent="1" source="9ARMjuW_XUP-sxyPgSNL-93" target="9ARMjuW_XUP-sxyPgSNL-98" edge="1">
          <mxGeometry relative="1" as="geometry" />
        </mxCell>
        <mxCell id="9ARMjuW_XUP-sxyPgSNL-93" value="PEKATIHAN" style="rounded=0;whiteSpace=wrap;html=1;" parent="1" vertex="1">
          <mxGeometry x="1070" y="210" width="120" height="60" as="geometry" />
        </mxCell>
        <mxCell id="9ARMjuW_XUP-sxyPgSNL-96" value="TIK" style="ellipse;whiteSpace=wrap;html=1;" parent="1" vertex="1">
          <mxGeometry x="1010" y="353" width="100" height="60" as="geometry" />
        </mxCell>
        <mxCell id="9ARMjuW_XUP-sxyPgSNL-97" value="ELEKTRO" style="ellipse;whiteSpace=wrap;html=1;" parent="1" vertex="1">
          <mxGeometry x="1110" y="360" width="100" height="60" as="geometry" />
        </mxCell>
        <mxCell id="9ARMjuW_XUP-sxyPgSNL-98" value="T.MESIN" style="ellipse;whiteSpace=wrap;html=1;" parent="1" vertex="1">
          <mxGeometry x="1210" y="320" width="100" height="60" as="geometry" />
        </mxCell>
        <mxCell id="9ARMjuW_XUP-sxyPgSNL-104" style="edgeStyle=orthogonalEdgeStyle;rounded=0;orthogonalLoop=1;jettySize=auto;html=1;exitX=0;exitY=0.5;exitDx=0;exitDy=0;" parent="1" source="9ARMjuW_XUP-sxyPgSNL-103" edge="1">
          <mxGeometry relative="1" as="geometry">
            <mxPoint x="900" y="530" as="targetPoint" />
          </mxGeometry>
        </mxCell>
        <mxCell id="9ARMjuW_XUP-sxyPgSNL-103" value="PENJADWALAN" style="rounded=0;whiteSpace=wrap;html=1;" parent="1" vertex="1">
          <mxGeometry x="1030" y="490" width="120" height="60" as="geometry" />
        </mxCell>
        <mxCell id="9ARMjuW_XUP-sxyPgSNL-111" style="edgeStyle=orthogonalEdgeStyle;rounded=0;orthogonalLoop=1;jettySize=auto;html=1;exitX=0.5;exitY=0;exitDx=0;exitDy=0;entryX=0;entryY=1;entryDx=0;entryDy=0;" parent="1" source="9ARMjuW_XUP-sxyPgSNL-106" target="9ARMjuW_XUP-sxyPgSNL-103" edge="1">
          <mxGeometry relative="1" as="geometry" />
        </mxCell>
        <mxCell id="9ARMjuW_XUP-sxyPgSNL-106" value="ID_PENJADWALAN" style="ellipse;whiteSpace=wrap;html=1;" parent="1" vertex="1">
          <mxGeometry x="920" y="615" width="120" height="75" as="geometry" />
        </mxCell>
        <mxCell id="9ARMjuW_XUP-sxyPgSNL-112" style="edgeStyle=orthogonalEdgeStyle;rounded=0;orthogonalLoop=1;jettySize=auto;html=1;exitX=0.5;exitY=0;exitDx=0;exitDy=0;entryX=0.25;entryY=1;entryDx=0;entryDy=0;" parent="1" source="9ARMjuW_XUP-sxyPgSNL-107" target="9ARMjuW_XUP-sxyPgSNL-103" edge="1">
          <mxGeometry relative="1" as="geometry" />
        </mxCell>
        <mxCell id="9ARMjuW_XUP-sxyPgSNL-107" value="HARI" style="ellipse;whiteSpace=wrap;html=1;" parent="1" vertex="1">
          <mxGeometry x="1040" y="630" width="100" height="60" as="geometry" />
        </mxCell>
        <mxCell id="9ARMjuW_XUP-sxyPgSNL-113" style="edgeStyle=orthogonalEdgeStyle;rounded=0;orthogonalLoop=1;jettySize=auto;html=1;exitX=0.5;exitY=0;exitDx=0;exitDy=0;entryX=0.5;entryY=1;entryDx=0;entryDy=0;" parent="1" source="9ARMjuW_XUP-sxyPgSNL-108" target="9ARMjuW_XUP-sxyPgSNL-103" edge="1">
          <mxGeometry relative="1" as="geometry" />
        </mxCell>
        <mxCell id="9ARMjuW_XUP-sxyPgSNL-108" value="TANGGAL" style="ellipse;whiteSpace=wrap;html=1;" parent="1" vertex="1">
          <mxGeometry x="1140" y="622.5" width="100" height="60" as="geometry" />
        </mxCell>
        <mxCell id="9ARMjuW_XUP-sxyPgSNL-114" style="edgeStyle=orthogonalEdgeStyle;rounded=0;orthogonalLoop=1;jettySize=auto;html=1;exitX=0.5;exitY=0;exitDx=0;exitDy=0;entryX=1;entryY=0.75;entryDx=0;entryDy=0;" parent="1" source="9ARMjuW_XUP-sxyPgSNL-110" target="9ARMjuW_XUP-sxyPgSNL-103" edge="1">
          <mxGeometry relative="1" as="geometry" />
        </mxCell>
        <mxCell id="9ARMjuW_XUP-sxyPgSNL-110" value="NAMA _PENDAFTAR" style="ellipse;whiteSpace=wrap;html=1;" parent="1" vertex="1">
          <mxGeometry x="1250" y="622.5" width="100" height="60" as="geometry" />
        </mxCell>
        <mxCell id="9ARMjuW_XUP-sxyPgSNL-116" value="1" style="text;html=1;strokeColor=none;fillColor=none;align=center;verticalAlign=middle;whiteSpace=wrap;rounded=0;" parent="1" vertex="1">
          <mxGeometry x="250" y="30" width="40" height="20" as="geometry" />
        </mxCell>
        <mxCell id="9ARMjuW_XUP-sxyPgSNL-117" value="N" style="text;html=1;strokeColor=none;fillColor=none;align=center;verticalAlign=middle;whiteSpace=wrap;rounded=0;" parent="1" vertex="1">
          <mxGeometry x="1110" y="175" width="40" height="20" as="geometry" />
        </mxCell>
        <mxCell id="9ARMjuW_XUP-sxyPgSNL-118" value="1" style="text;html=1;strokeColor=none;fillColor=none;align=center;verticalAlign=middle;whiteSpace=wrap;rounded=0;" parent="1" vertex="1">
          <mxGeometry x="230" y="490" width="40" height="20" as="geometry" />
        </mxCell>
        <mxCell id="9ARMjuW_XUP-sxyPgSNL-119" value="N" style="text;html=1;strokeColor=none;fillColor=none;align=center;verticalAlign=middle;whiteSpace=wrap;rounded=0;" parent="1" vertex="1">
          <mxGeometry x="1080" y="470" width="40" height="20" as="geometry" />
        </mxCell>
        <mxCell id="9ARMjuW_XUP-sxyPgSNL-121" style="edgeStyle=orthogonalEdgeStyle;rounded=0;orthogonalLoop=1;jettySize=auto;html=1;exitX=0.5;exitY=0;exitDx=0;exitDy=0;entryX=0;entryY=1;entryDx=0;entryDy=0;" parent="1" source="9ARMjuW_XUP-sxyPgSNL-120" target="9ARMjuW_XUP-sxyPgSNL-93" edge="1">
          <mxGeometry relative="1" as="geometry" />
        </mxCell>
        <mxCell id="9ARMjuW_XUP-sxyPgSNL-120" value="ID_PELATIHAN" style="ellipse;whiteSpace=wrap;html=1;" parent="1" vertex="1">
          <mxGeometry x="910" y="350" width="100" height="60" as="geometry" />
        </mxCell>
        <mxCell id="9ARMjuW_XUP-sxyPgSNL-122" value="FK" style="text;html=1;strokeColor=none;fillColor=none;align=center;verticalAlign=middle;whiteSpace=wrap;rounded=0;" parent="1" vertex="1">
          <mxGeometry x="50" y="90" width="40" height="20" as="geometry" />
        </mxCell>
        <mxCell id="9ARMjuW_XUP-sxyPgSNL-124" value="FK" style="text;html=1;strokeColor=none;fillColor=none;align=center;verticalAlign=middle;whiteSpace=wrap;rounded=0;" parent="1" vertex="1">
          <mxGeometry x="40" y="610" width="40" height="20" as="geometry" />
        </mxCell>
        <mxCell id="9ARMjuW_XUP-sxyPgSNL-125" value="FK" style="text;html=1;strokeColor=none;fillColor=none;align=center;verticalAlign=middle;whiteSpace=wrap;rounded=0;" parent="1" vertex="1">
          <mxGeometry x="1070" y="690" width="40" height="20" as="geometry" />
        </mxCell>
        <mxCell id="9ARMjuW_XUP-sxyPgSNL-126" value="FK" style="text;html=1;strokeColor=none;fillColor=none;align=center;verticalAlign=middle;whiteSpace=wrap;rounded=0;" parent="1" vertex="1">
          <mxGeometry x="1050" y="413" width="40" height="20" as="geometry" />
        </mxCell>
      </root>
    </mxGraphModel>
  </diagram>
</mxfile>
